<?xml version="1.0" encoding="UTF-8" standalone="no"?>
<!-- Created with Inkscape (http://www.inkscape.org/) -->

<svg
   xmlns:dc="http://purl.org/dc/elements/1.1/"
   xmlns:cc="http://creativecommons.org/ns#"
   xmlns:rdf="http://www.w3.org/1999/02/22-rdf-syntax-ns#"
   xmlns:svg="http://www.w3.org/2000/svg"
   xmlns="http://www.w3.org/2000/svg"
   xmlns:sodipodi="http://sodipodi.sourceforge.net/DTD/sodipodi-0.dtd"
   xmlns:inkscape="http://www.inkscape.org/namespaces/inkscape"
   version="1.1"
   id="svg2"
   xml:space="preserve"
   width="524"
   height="524"
   viewBox="0 0 524 524"
   sodipodi:docname="dovticClinic.ai.svg"
   inkscape:version="0.92.3 (unknown)"
   inkscape:export-filename="/home/alvaro/NetBeansProjects/DOVTIC/Dovtic/web/Public/assets/facebook/dovticClinic.ai.svg.png"
   inkscape:export-xdpi="96"
   inkscape:export-ydpi="96"><metadata
     id="metadata8"><rdf:RDF><cc:Work
         rdf:about=""><dc:format>image/svg+xml</dc:format><dc:type
           rdf:resource="http://purl.org/dc/dcmitype/StillImage" /><dc:title /></cc:Work></rdf:RDF></metadata><defs
     id="defs6"><clipPath
       clipPathUnits="userSpaceOnUse"
       id="clipPath20"><path
         d="M 0,393 H 393 V 0 H 0 Z"
         id="path18"
         inkscape:connector-curvature="0" /></clipPath></defs><sodipodi:namedview
     pagecolor="#ffffff"
     bordercolor="#666666"
     borderopacity="1"
     objecttolerance="10"
     gridtolerance="10"
     guidetolerance="10"
     inkscape:pageopacity="0"
     inkscape:pageshadow="2"
     inkscape:window-width="1680"
     inkscape:window-height="1026"
     id="namedview4"
     showgrid="false"
     inkscape:zoom="0.98558265"
     inkscape:cx="81.815729"
     inkscape:cy="225.05174"
     inkscape:window-x="0"
     inkscape:window-y="24"
     inkscape:window-maximized="1"
     inkscape:current-layer="g10" /><g
     id="g10"
     inkscape:groupmode="layer"
     inkscape:label="perfil d"
     transform="matrix(1.3333333,0,0,-1.3333333,0,524)"><path
       d="M 3.7582609e-8,0 H 393 V 393 H 3.7582609e-8 Z"
       style="fill:#29b6f6;fill-opacity:1;fill-rule:nonzero;stroke:none"
       id="path12"
       inkscape:connector-curvature="0" /><g
       id="g14"
       transform="matrix(1,0,0,0.9540129,0,15.536791)"
       style="stroke-width:1.02381825"><g
         style="stroke-width:1.02381825"
         transform="translate(231.93404,206.70012)"
         id="g22"><path
           inkscape:connector-curvature="0"
           id="path24"
           style="fill:none;stroke:#ffffff;stroke-width:5.21021128;stroke-linecap:butt;stroke-linejoin:miter;stroke-miterlimit:10;stroke-dasharray:none;stroke-opacity:1"
           d="M 0,0 39.764,111.329 2.807,151.092 c 0,0 -31.808,-17.309 -73.907,0 L -107.588,109.927 -66.891,0 -32.363,35.081 Z" /></g><g
         style="stroke-width:1.02381825"
         transform="translate(160.83444,357.79242)"
         id="g26"><path
           inkscape:connector-curvature="0"
           id="path28"
           style="fill:#ffffff;fill-opacity:1;fill-rule:nonzero;stroke:none;stroke-width:1.02381825"
           d="m 0,0 c 0,0 1.204,-2.316 3.318,-6.37 2.049,-4.081 5.094,-9.859 8.55,-16.882 3.449,-7.024 7.563,-15.182 11.816,-23.997 4.281,-8.8 8.745,-18.232 13.217,-27.663 4.414,-9.454 8.84,-18.908 12.893,-27.814 4.084,-8.889 7.745,-17.261 10.959,-24.399 3.211,-7.14 5.723,-13.168 7.556,-17.35 1.778,-4.211 2.791,-6.617 2.791,-6.617 0,0 -1.205,2.316 -3.316,6.368 -2.054,4.08 -5.1,9.857 -8.554,16.884 -3.45,7.026 -7.569,15.179 -11.815,23.994 -4.282,8.8 -8.742,18.235 -13.216,27.664 -4.414,9.457 -8.839,18.91 -12.888,27.818 -4.082,8.891 -7.747,17.261 -10.96,24.4 C 7.142,-16.823 4.628,-10.799 2.792,-6.618 1.016,-2.406 0,0 0,0" /></g><g
         style="stroke-width:1.02381825"
         transform="translate(234.74064,357.79242)"
         id="g30"><path
           inkscape:connector-curvature="0"
           id="path32"
           style="fill:#ffffff;fill-opacity:1;fill-rule:nonzero;stroke:none;stroke-width:1.02381825"
           d="m 0,0 c 0,0 -1.334,-1.565 -3.668,-4.304 -2.379,-2.699 -5.692,-6.632 -9.824,-11.207 -4.134,-4.569 -8.889,-9.969 -14.107,-15.635 -5.196,-5.688 -10.822,-11.674 -16.437,-17.672 -5.664,-5.953 -11.319,-11.913 -16.698,-17.427 -5.352,-5.54 -10.474,-10.593 -14.799,-14.985 -4.327,-4.388 -8.069,-7.919 -10.623,-10.449 -2.603,-2.489 -4.091,-3.908 -4.091,-3.908 0,0 1.335,1.565 3.667,4.307 2.383,2.696 5.692,6.633 9.826,11.205 4.134,4.571 8.88,9.973 14.107,15.634 5.195,5.689 10.823,11.677 16.439,17.673 5.664,5.951 11.321,11.909 16.702,17.423 5.356,5.538 10.471,10.594 14.797,14.985 4.329,4.387 8.066,7.921 10.623,10.451 C -1.483,-1.422 0,0 0,0" /></g><g
         style="stroke-width:1.02381825"
         transform="translate(271.69774,320.37102)"
         id="g34"><path
           inkscape:connector-curvature="0"
           id="path36"
           style="fill:#ffffff;fill-opacity:1;fill-rule:nonzero;stroke:none;stroke-width:1.02381825"
           d="m 0,0 c -5.769,-6.587 -11.674,-13.038 -17.507,-19.561 l -17.729,-19.347 c -5.881,-6.477 -11.912,-12.81 -17.876,-19.208 l -17.934,-19.155 -1.047,-1.122 -1.085,1.091 -18.716,18.8 c -6.216,6.288 -12.519,12.492 -18.66,18.857 l -18.511,19.006 c -6.092,6.416 -12.256,12.755 -18.287,19.233 6.509,-5.992 12.882,-12.13 19.327,-18.188 l 19.098,-18.416 c 6.398,-6.107 12.632,-12.38 18.955,-18.564 l 18.894,-18.619 -2.129,-0.032 18.129,18.969 c 6.055,6.31 12.049,12.684 18.187,18.915 l 18.333,18.774 C -12.37,-12.381 -6.254,-6.127 0,0" /></g><g
         style="stroke-width:1.02381825"
         transform="translate(96.120542,148.27482)"
         id="g38"><path
           inkscape:connector-curvature="0"
           id="path40"
           style="fill:#ffffff;fill-opacity:1;fill-rule:nonzero;stroke:none;stroke-width:1.02381825"
           d="m 0,0 c 4.359,0 7.865,1.148 10.522,3.445 2.657,2.296 3.985,5.566 3.985,9.811 v 0.149 c 0,4.195 -1.328,7.451 -3.985,9.773 C 7.865,25.5 4.359,26.661 0,26.661 H -5.937 V 0 Z m -20.467,39.542 h 20.221 c 4.691,0 8.874,-0.637 12.544,-1.91 3.669,-1.273 6.764,-3.058 9.285,-5.354 2.521,-2.298 4.443,-5.032 5.768,-8.201 1.321,-3.171 1.984,-6.654 1.984,-10.447 v -0.15 c 0,-3.794 -0.674,-7.301 -2.023,-10.522 -1.348,-3.22 -3.294,-6.003 -5.84,-8.35 -2.546,-2.347 -5.681,-4.182 -9.399,-5.504 -3.719,-1.323 -7.927,-1.985 -12.62,-1.985 h -19.92 z" /></g><g
         style="stroke-width:1.02381825"
         transform="translate(152.93894,146.55212)"
         id="g42"><path
           inkscape:connector-curvature="0"
           id="path44"
           style="fill:#ffffff;fill-opacity:1;fill-rule:nonzero;stroke:none;stroke-width:1.02381825"
           d="M 0,0 C 1.299,0 2.472,0.236 3.521,0.706 4.568,1.176 5.454,1.82 6.18,2.637 6.901,3.454 7.463,4.408 7.864,5.496 8.263,6.585 8.463,7.725 8.463,8.914 v 0.148 c 0,1.238 -0.213,2.401 -0.637,3.491 -0.424,1.089 -1.023,2.042 -1.797,2.859 -0.774,0.817 -1.684,1.473 -2.733,1.969 -1.049,0.494 -2.197,0.743 -3.444,0.743 -1.299,0 -2.472,-0.235 -3.521,-0.706 -1.048,-0.471 -1.935,-1.116 -2.658,-1.932 -0.725,-0.816 -1.287,-1.771 -1.685,-2.86 -0.4,-1.089 -0.599,-2.228 -0.599,-3.416 V 9.062 C -8.611,7.824 -8.399,6.66 -7.975,5.57 -7.551,4.481 -6.952,3.528 -6.177,2.711 -5.403,1.896 -4.493,1.239 -3.444,0.744 -2.396,0.247 -1.247,0 0,0 m -0.148,-12.131 c -3.247,0 -6.229,0.549 -8.95,1.646 -2.721,1.098 -5.082,2.609 -7.078,4.532 -1.997,1.921 -3.545,4.156 -4.642,6.703 -1.099,2.545 -1.648,5.266 -1.648,8.162 v 0.15 c 0,2.895 0.562,5.628 1.685,8.2 1.124,2.571 2.683,4.818 4.68,6.74 1.997,1.921 4.369,3.445 7.116,4.568 2.744,1.124 5.74,1.685 8.985,1.685 3.246,0 6.229,-0.561 8.95,-1.685 2.721,-1.123 5.079,-2.633 7.077,-4.53 1.996,-1.898 3.544,-4.119 4.643,-6.665 1.098,-2.547 1.648,-5.268 1.648,-8.163 v -0.15 c 0,-2.895 -0.561,-5.629 -1.685,-8.2 -1.124,-2.572 -2.685,-4.819 -4.68,-6.741 -1.998,-1.922 -4.37,-3.444 -7.115,-4.568 -2.746,-1.123 -5.742,-1.684 -8.986,-1.684" /></g><g
         style="stroke-width:1.02381825"
         transform="translate(178.17624,175.90962)"
         id="g46"><path
           inkscape:connector-curvature="0"
           id="path48"
           style="fill:#ffffff;fill-opacity:1;fill-rule:nonzero;stroke:none;stroke-width:1.02381825"
           d="M 0,0 H 14.979 L 22.767,-23.666 30.555,0 H 45.308 L 29.132,-40.815 H 16.176 Z" /></g><g
         style="stroke-width:1.02381825"
         transform="translate(244.22504,134.56972)"
         id="g50"><path
           inkscape:connector-curvature="0"
           id="path52"
           style="fill:#ffffff;fill-opacity:1;fill-rule:nonzero;stroke:none;stroke-width:1.02381825"
           d="M 0,0 C -4.316,0 -7.679,1.023 -10.088,3.071 -12.497,5.118 -13.7,8.563 -13.7,13.405 v 16.476 h -4.794 V 41.34 H -13.7 V 51.599 H 0.603 V 41.34 h 9.436 V 29.881 H 0.603 V 16.177 c 0,-1.448 0.325,-2.485 0.973,-3.108 0.649,-0.626 1.622,-0.936 2.921,-0.936 0.947,0 1.872,0.124 2.771,0.374 0.898,0.249 1.771,0.574 2.621,0.973 V 2.322 C 8.59,1.623 7.118,1.061 5.471,0.637 3.823,0.214 1.999,0 0,0" /></g><g
         style="stroke-width:1.02381825"
         transform="translate(302.34124,134.42082)"
         id="g54"><path
           inkscape:connector-curvature="0"
           id="path56"
           style="fill:#ffffff;fill-opacity:1;fill-rule:nonzero;stroke:none;stroke-width:1.02381825"
           d="m 0,0 c -3.046,0 -5.866,0.562 -8.462,1.685 -2.597,1.123 -4.83,2.633 -6.703,4.53 -1.872,1.897 -3.345,4.131 -4.419,6.703 -1.073,2.571 -1.61,5.28 -1.61,8.125 v 0.15 c 0,2.846 0.537,5.555 1.61,8.125 1.074,2.571 2.56,4.819 4.457,6.741 1.896,1.921 4.181,3.445 6.853,4.568 2.67,1.123 5.602,1.685 8.798,1.685 4.194,0 7.688,-0.823 10.485,-2.472 2.796,-1.647 5.067,-3.845 6.815,-6.59 L 8.163,26.062 c -1,1.347 -2.072,2.396 -3.22,3.144 -1.149,0.75 -2.596,1.124 -4.343,1.124 -1.15,0 -2.21,-0.238 -3.184,-0.712 -0.974,-0.474 -1.81,-1.123 -2.509,-1.947 -0.699,-0.823 -1.248,-1.773 -1.646,-2.845 -0.401,-1.075 -0.6,-2.236 -0.6,-3.483 v -0.15 c 0,-1.298 0.199,-2.508 0.6,-3.631 0.398,-1.125 0.947,-2.098 1.646,-2.921 0.699,-0.824 1.547,-1.474 2.547,-1.947 0.998,-0.475 2.097,-0.712 3.295,-0.712 1.697,0 3.133,0.374 4.307,1.123 1.172,0.749 2.333,1.772 3.481,3.071 l 9.512,-6.89 C 16.15,6.489 13.78,4.243 10.935,2.545 8.088,0.85 4.442,0 0,0" /></g><g
         style="stroke-width:1.02381825"
         transform="translate(260.32954,184.73522)"
         id="g58"><path
           inkscape:connector-curvature="0"
           id="path60"
           style="fill:#ffffff;fill-opacity:1;fill-rule:nonzero;stroke:none;stroke-width:1.02381825"
           d="M 0,0 V -5.156 H 14.902 V 0.008 H 11.706 V -1.865 H 8.71 V 0.008 H 6.182 V -1.865 H 3.187 V 0.008 H 0.369 Z" /></g><g
         style="stroke-width:1.02381825"
         transform="translate(275.23194,185.49112)"
         id="g62"><path
           inkscape:connector-curvature="0"
           id="path64"
           style="fill:#ffffff;fill-opacity:1;fill-rule:nonzero;stroke:none;stroke-width:1.02381825"
           d="M 0,0 V 4.571 H -14.902 V 0 h 0.003 0.366 2.817 v 1.873 h 2.995 V 0 h 2.529 v 1.873 h 2.996 V 0 Z" /></g><path
         inkscape:connector-curvature="0"
         id="path66"
         style="fill:#ffffff;fill-opacity:1;fill-rule:nonzero;stroke:none;stroke-width:1.02381825"
         d="m 260.62794,135.39432 h 14.305 v 40.516 h -14.305 z" /><g
         style="stroke-width:1.02381825"
         transform="translate(126.95844,96.836824)"
         id="g78" /><text
         xml:space="preserve"
         style="font-style:normal;font-weight:normal;font-size:30.71454811px;line-height:1.25;font-family:sans-serif;letter-spacing:0px;word-spacing:0px;fill:#ffffff;fill-opacity:1;stroke:none;stroke-width:0.7861529"
         x="236.06616"
         y="-100.17849"
         id="text990"
         transform="scale(0.97673583,-1.0238183)"><tspan
           sodipodi:role="line"
           id="tspan988"
           x="236.06616"
           y="-100.17849"
           style="font-style:normal;font-variant:normal;font-weight:bold;font-stretch:normal;font-family:STIXIntegralsD;-inkscape-font-specification:'STIXIntegralsD Bold';fill:#ffffff;fill-opacity:1;stroke-width:0.7861529">Clinic</tspan></text>
</g></g></svg>