<?xml version="1.0" encoding="UTF-8" standalone="no"?>
<!-- Created with Inkscape (http://www.inkscape.org/) -->

<svg
   xmlns:dc="http://purl.org/dc/elements/1.1/"
   xmlns:cc="http://creativecommons.org/ns#"
   xmlns:rdf="http://www.w3.org/1999/02/22-rdf-syntax-ns#"
   xmlns:svg="http://www.w3.org/2000/svg"
   xmlns="http://www.w3.org/2000/svg"
   xmlns:sodipodi="http://sodipodi.sourceforge.net/DTD/sodipodi-0.dtd"
   xmlns:inkscape="http://www.inkscape.org/namespaces/inkscape"
   width="86mm"
   height="85mm"
   viewBox="0 0 86 85"
   version="1.1"
   id="svg1692"
   inkscape:version="0.92.2 (unknown)"
   sodipodi:docname="diente2.svg">
  <defs
     id="defs1686" />
  <sodipodi:namedview
     id="base"
     pagecolor="#ffffff"
     bordercolor="#666666"
     borderopacity="1.0"
     inkscape:pageopacity="0"
     inkscape:pageshadow="2"
     inkscape:zoom="1.2769531"
     inkscape:cx="329.12817"
     inkscape:cy="184.10523"
     inkscape:document-units="mm"
     inkscape:current-layer="layer1"
     showgrid="false"
     inkscape:pagecheckerboard="true"
     inkscape:showpageshadow="false"
     showborder="true"
     inkscape:window-width="1920"
     inkscape:window-height="1056"
     inkscape:window-x="0"
     inkscape:window-y="24"
     inkscape:window-maximized="1" />
  <metadata
     id="metadata1689">
    <rdf:RDF>
      <cc:Work
         rdf:about="">
        <dc:format>image/svg+xml</dc:format>
        <dc:type
           rdf:resource="http://purl.org/dc/dcmitype/StillImage" />
        <dc:title></dc:title>
      </cc:Work>
    </rdf:RDF>
  </metadata>
  <g
     inkscape:label="Layer 1"
     inkscape:groupmode="layer"
     id="layer1"
     transform="translate(0,-212)">
    <g
       id="g845"
       transform="matrix(1.1552682,0,0,-1.0986014,116.53921,158.9525)"
       style="stroke-width:0.31314087">
      <g
         id="g2821"
         transform="translate(-27.799463,-68.462697)">
        <g
           style="stroke-width:0.31314087"
           transform="translate(-19.359405,-55.343313)"
           id="g833">
          <path
             inkscape:connector-curvature="0"
             id="path835"
             style="fill:none;stroke:#29b6f6;stroke-width:1.59357393;stroke-linecap:butt;stroke-linejoin:miter;stroke-miterlimit:10;stroke-dasharray:none;stroke-opacity:1"
             d="M 0,0 19.359,54.205 1.365,73.564 c 0,0 -15.486,-8.428 -35.984,0 L -52.383,53.521 -32.568,0 l 16.81,17.081 z" />
        </g>
        <g
           style="stroke-width:0.31314087"
           transform="translate(-53.978606,18.220649)"
           id="g837">
          <path
             inkscape:connector-curvature="0"
             id="path839"
             style="fill:#29b6f6;fill-opacity:1;fill-rule:nonzero;stroke:none;stroke-width:0.31314087"
             d="m 0,0 c 0,0 0.588,-1.127 1.615,-3.101 1,-1.986 2.481,-4.799 4.162,-8.22 1.682,-3.421 3.684,-7.392 5.754,-11.683 2.084,-4.285 4.258,-8.877 6.436,-13.469 2.15,-4.604 4.304,-9.206 6.277,-13.542 1.99,-4.329 3.772,-8.405 5.336,-11.881 1.565,-3.475 2.786,-6.41 3.68,-8.447 0.865,-2.05 1.359,-3.221 1.359,-3.221 0,0 -0.588,1.127 -1.615,3.101 -1,1.986 -2.483,4.798 -4.164,8.219 -1.681,3.421 -3.686,7.391 -5.754,11.683 -2.084,4.285 -4.256,8.878 -6.434,13.47 -2.15,4.604 -4.303,9.206 -6.276,13.543 -1.987,4.33 -3.771,8.404 -5.335,11.88 C 3.478,-8.191 2.254,-5.257 1.36,-3.221 0.494,-1.171 0,0 0,0" />
        </g>
        <g
           style="stroke-width:0.31314087"
           transform="translate(-17.994204,18.220649)"
           id="g841">
          <path
             inkscape:connector-curvature="0"
             id="path843"
             style="fill:#29b6f6;fill-opacity:1;fill-rule:nonzero;stroke:none;stroke-width:0.31314087"
             d="m 0,0 c 0,0 -0.649,-0.762 -1.785,-2.096 -1.159,-1.313 -2.773,-3.229 -4.784,-5.456 -2.013,-2.225 -4.327,-4.854 -6.869,-7.612 -2.531,-2.769 -5.269,-5.686 -8.003,-8.605 -2.758,-2.898 -5.51,-5.8 -8.13,-8.485 -2.607,-2.697 -5.099,-5.157 -7.205,-7.295 -2.107,-2.137 -3.929,-3.856 -5.173,-5.088 -1.266,-1.211 -1.99,-1.903 -1.99,-1.903 0,0 0.649,0.763 1.785,2.097 1.158,1.313 2.77,3.23 4.783,5.456 2.014,2.225 4.326,4.855 6.869,7.612 2.529,2.77 5.269,5.685 8.004,8.604 2.758,2.898 5.512,5.799 8.131,8.484 2.607,2.695 5.099,5.157 7.205,7.295 2.107,2.136 3.928,3.857 5.172,5.089 C -0.724,-0.692 0,0 0,0" />
        </g>
        <path
           inkscape:connector-curvature="0"
           id="path847"
           style="fill:#29b6f6;fill-opacity:1;fill-rule:nonzero;stroke:none;stroke-width:0.31314087"
           d="m 0,0 c -2.809,-3.206 -5.684,-6.348 -8.523,-9.523 l -8.633,-9.419 c -2.864,-3.154 -5.799,-6.239 -8.703,-9.353 l -8.732,-9.326 -0.511,-0.545 -0.527,0.529 -9.111,9.154 c -3.028,3.063 -6.096,6.082 -9.086,9.182 l -9.012,9.254 c -2.967,3.123 -5.969,6.21 -8.904,9.364 3.169,-2.919 6.271,-5.906 9.408,-8.856 l 9.301,-8.966 c 3.114,-2.974 6.149,-6.027 9.226,-9.038 l 9.202,-9.066 -1.039,-0.016 8.828,9.236 c 2.948,3.072 5.865,6.174 8.855,9.208 l 8.926,9.142 C -6.022,-6.027 -3.045,-2.982 0,0" />
      </g>
    </g>
  </g>
</svg>
