<?xml version="1.0" encoding="UTF-8" standalone="no"?>
<!-- Created with Inkscape (http://www.inkscape.org/) -->

<svg
   xmlns:dc="http://purl.org/dc/elements/1.1/"
   xmlns:cc="http://creativecommons.org/ns#"
   xmlns:rdf="http://www.w3.org/1999/02/22-rdf-syntax-ns#"
   xmlns:svg="http://www.w3.org/2000/svg"
   xmlns="http://www.w3.org/2000/svg"
   xmlns:sodipodi="http://sodipodi.sourceforge.net/DTD/sodipodi-0.dtd"
   xmlns:inkscape="http://www.inkscape.org/namespaces/inkscape"
   width="150mm"
   height="31mm"
   viewBox="0 0 150 31"
   version="1.1"
   id="svg1279"
   inkscape:version="0.92.2 (unknown)"
   sodipodi:docname="dovtic2.svg">
  <defs
     id="defs1273" />
  <sodipodi:namedview
     id="base"
     pagecolor="#ffffff"
     bordercolor="#666666"
     borderopacity="1.0"
     inkscape:pageopacity="0.0"
     inkscape:pageshadow="2"
     inkscape:zoom="3.875928"
     inkscape:cx="62.510763"
     inkscape:cy="89.984412"
     inkscape:document-units="mm"
     inkscape:current-layer="layer1"
     showgrid="false"
     inkscape:window-width="1920"
     inkscape:window-height="1056"
     inkscape:window-x="0"
     inkscape:window-y="24"
     inkscape:window-maximized="1" />
  <metadata
     id="metadata1276">
    <rdf:RDF>
      <cc:Work
         rdf:about="">
        <dc:format>image/svg+xml</dc:format>
        <dc:type
           rdf:resource="http://purl.org/dc/dcmitype/StillImage" />
        <dc:title />
      </cc:Work>
    </rdf:RDF>
  </metadata>
  <g
     inkscape:label="Layer 1"
     inkscape:groupmode="layer"
     id="layer1"
     transform="translate(0,-266)">
    <g
       id="g178"
       transform="matrix(0.35277777,0,0,-0.35277777,42.024218,288.2865)"
       style="stroke:#ffffff;stroke-opacity:1;fill:#ffffff;fill-opacity:1">
      <path
         d="m 0,0 c 5.82,0 10.502,1.533 14.049,4.6 3.547,3.065 5.32,7.432 5.32,13.099 v 0.199 c 0,5.6 -1.773,9.95 -5.32,13.049 -3.547,3.1 -8.229,4.65 -14.049,4.65 H -7.929 V 0 Z m -27.327,52.795 h 26.998 c 6.265,0 11.849,-0.85 16.748,-2.549 4.899,-1.7 9.032,-4.084 12.398,-7.15 3.367,-3.067 5.933,-6.717 7.701,-10.949 1.764,-4.234 2.649,-8.883 2.649,-13.949 v -0.199 c 0,-5.067 -0.9,-9.749 -2.7,-14.049 -1.8,-4.3 -4.4,-8.016 -7.799,-11.149 -3.399,-3.134 -7.584,-5.584 -12.549,-7.349 -4.967,-1.767 -10.584,-2.65 -16.848,-2.65 h -26.598 z"
         style="fill:#ffffff;fill-opacity:1;fill-rule:nonzero;stroke:#ffffff;stroke-opacity:1"
         id="path180"
         inkscape:connector-curvature="0" />
    </g>
    <path
       d="m 68.787105,289.09782 c 0.611362,0 1.164167,-0.11078 1.658054,-0.33232 0.49389,-0.22155 0.910873,-0.52493 1.252363,-0.90946 0.340429,-0.38488 0.605012,-0.83397 0.793395,-1.34691 0.188032,-0.51329 0.282575,-1.04951 0.282575,-1.60972 v -0.0699 c 0,-0.58314 -0.100541,-1.13101 -0.300212,-1.6443 -0.199673,-0.51294 -0.482248,-0.96202 -0.846315,-1.34691 -0.364773,-0.38452 -0.79375,-0.6932 -1.287639,-0.9271 -0.493888,-0.23318 -1.03505,-0.34995 -1.622425,-0.34995 -0.612069,0 -1.164167,0.11077 -1.658054,0.33232 -0.49389,0.22154 -0.91158,0.52528 -1.252363,0.91016 -0.341135,0.38453 -0.605719,0.83397 -0.793396,1.34691 -0.188383,0.51329 -0.282223,1.04951 -0.282223,1.60902 v 0.0699 c 0,0.58314 0.09948,1.13136 0.299861,1.64465 0.199321,0.51329 0.481541,0.96202 0.846314,1.34655 0.364419,0.38453 0.79375,0.69391 1.28764,0.9271 0.493887,0.23354 1.034344,0.34996 1.622425,0.34996 m -0.0702,5.71429 c -1.528938,0 -2.934052,-0.25894 -4.215342,-0.77576 -1.281994,-0.51717 -2.393596,-1.22872 -3.33375,-2.1343 -0.940858,-0.90488 -1.669696,-1.95792 -2.186869,-3.15701 -0.517525,-1.19945 -0.77611,-2.48074 -0.77611,-3.84493 v -0.0705 c 0,-1.36348 0.264583,-2.65112 0.79375,-3.86256 0.529167,-1.21073 1.264002,-2.26907 2.20486,-3.17465 0.940152,-0.90523 2.0574,-1.62278 3.351036,-2.15159 1.292931,-0.52917 2.703689,-0.79375 4.232629,-0.79375 1.528585,0 2.933346,0.26458 4.215342,0.79375 1.281641,0.52881 2.392537,1.24037 3.333395,2.13395 0.940155,0.89394 1.669698,1.93993 2.187223,3.13937 0.516819,1.19945 0.776111,2.48109 0.776111,3.84493 v 0.0706 c 0,1.36419 -0.264584,2.65147 -0.79375,3.86256 -0.529167,1.21144 -1.264354,2.26977 -2.204509,3.17465 -0.940858,0.90558 -2.058104,1.62277 -3.351035,2.15194 -1.293635,0.52882 -2.704748,0.7934 -4.232981,0.7934"
       style="fill:#ffffff;fill-opacity:1;fill-rule:nonzero;stroke:#ffffff;stroke-width:0.35277775;stroke-opacity:1"
       id="path184"
       inkscape:connector-curvature="0" />
    <g
       id="g186"
       transform="matrix(0.35277777,0,0,-0.35277777,80.674413,275.27006)"
       style="stroke:#ffffff;stroke-opacity:1;fill:#ffffff;fill-opacity:1">
      <path
         d="M 0,0 H 19.998 L 30.397,-31.597 40.796,0 H 60.494 L 38.896,-54.495 H 21.598 Z"
         style="fill:#ffffff;fill-opacity:1;fill-rule:nonzero;stroke:#ffffff;stroke-opacity:1"
         id="path188"
         inkscape:connector-curvature="0" />
    </g>
    <g
       id="g190"
       transform="matrix(0.35277777,0,0,-0.35277777,111.78464,294.74173)"
       style="stroke:#ffffff;stroke-opacity:1;fill:#ffffff;fill-opacity:1">
      <path
         d="m 0,0 c -5.763,0 -10.253,1.366 -13.469,4.1 -3.217,2.733 -4.824,7.332 -4.824,13.798 v 21.998 h -6.399 v 15.299 h 6.399 V 68.894 H 0.805 V 55.195 H 13.404 V 39.896 H 0.805 V 21.598 c 0,-1.934 0.433,-3.317 1.299,-4.149 0.867,-0.835 2.167,-1.25 3.901,-1.25 1.266,0 2.499,0.165 3.699,0.5 1.2,0.332 2.365,0.765 3.5,1.3 V 3.1 C 11.47,2.166 9.504,1.416 7.305,0.85 5.104,0.285 2.669,0 0,0"
         style="fill:#ffffff;fill-opacity:1;fill-rule:nonzero;stroke:#ffffff;stroke-opacity:1"
         id="path192"
         inkscape:connector-curvature="0" />
    </g>
    <g
       id="g194"
       transform="matrix(0.35277777,0,0,-0.35277777,139.15903,294.81218)"
       style="stroke:#ffffff;stroke-opacity:1;fill:#ffffff;fill-opacity:1">
      <path
         d="m 0,0 c -4.067,0 -7.834,0.75 -11.299,2.25 -3.467,1.5 -6.449,3.515 -8.949,6.049 -2.5,2.533 -4.467,5.515 -5.899,8.95 -1.435,3.432 -2.151,7.049 -2.151,10.848 v 0.2 c 0,3.8 0.716,7.415 2.151,10.849 1.432,3.433 3.415,6.433 5.949,9 2.532,2.565 5.582,4.599 9.149,6.099 3.566,1.5 7.482,2.25 11.749,2.25 5.599,0 10.265,-1.1 13.998,-3.3 3.733,-2.2 6.766,-5.134 9.1,-8.799 l -12.9,-9.599 c -1.334,1.8 -2.766,3.2 -4.298,4.199 -1.535,1 -3.467,1.5 -5.8,1.5 -1.534,0 -2.95,-0.317 -4.25,-0.95 -1.3,-0.634 -2.417,-1.5 -3.35,-2.6 -0.933,-1.099 -1.667,-2.366 -2.199,-3.799 -0.534,-1.435 -0.8,-2.984 -0.8,-4.65 v -0.2 c 0,-1.734 0.266,-3.349 0.8,-4.849 0.532,-1.5 1.266,-2.8 2.199,-3.9 0.933,-1.1 2.066,-1.967 3.401,-2.6 1.332,-0.634 2.798,-0.949 4.399,-0.949 2.266,0 4.183,0.5 5.749,1.5 1.565,0.999 3.115,2.365 4.649,4.099 l 12.7,-9.199 c -2.535,-3.734 -5.7,-6.734 -9.499,-9 C 10.799,1.134 5.932,0 0,0"
         style="fill:#ffffff;fill-opacity:1;fill-rule:nonzero;stroke:#ffffff;stroke-opacity:1"
         id="path196"
         inkscape:connector-curvature="0" />
    </g>
    <g
       id="g198"
       transform="matrix(0.35277777,0,0,-0.35277777,119.37039,271.11303)"
       style="stroke:#ffffff;stroke-opacity:1;fill:#ffffff;fill-opacity:1">
      <path
         d="M 0,0 V -6.884 H 19.898 V 0.01 h -4.269 v -2.5 h -4 v 2.5 H 8.254 v -2.5 h -4 v 2.5 H 0.493 Z"
         style="fill:#ffffff;fill-opacity:1;fill-rule:nonzero;stroke:#ffffff;stroke-opacity:1"
         id="path200"
         inkscape:connector-curvature="0" />
    </g>
    <g
       id="g202"
       transform="matrix(0.35277777,0,0,-0.35277777,126.39013,270.75662)"
       style="stroke:#ffffff;stroke-opacity:1;fill:#ffffff;fill-opacity:1">
      <path
         d="M 0,0 V 6.104 H -19.898 V 0 h 0.003 0.49 3.76 v 2.5 h 4 V 0 h 3.375 v 2.5 h 4 V 0 Z"
         style="fill:#ffffff;fill-opacity:1;fill-rule:nonzero;stroke:#ffffff;stroke-opacity:1"
         id="path204"
         inkscape:connector-curvature="0" />
    </g>
    <path
       d="m 119.51125,294.35371 h 6.7377 V 275.2702 h -6.7377 z"
       style="fill:#ffffff;fill-opacity:1;fill-rule:nonzero;stroke:#ffffff;stroke-width:0.35277775;stroke-opacity:1"
       id="path206"
       inkscape:connector-curvature="0" />
    <g
       id="g20"
       transform="matrix(0.35277777,0,0,-0.35277777,19.950104,294.41564)"
       style="stroke:#f1e4e4;stroke-opacity:1;stroke-width:5.01000011;stroke-miterlimit:4;stroke-dasharray:none">
      <path
         d="M 0,0 19.359,54.205 1.365,73.564 c 0,0 -15.486,-8.428 -35.984,0 L -52.383,53.521 -32.568,0 l 16.81,17.081 z"
         style="fill:none;stroke:#f1e4e4;stroke-width:5.01000011;stroke-linecap:butt;stroke-linejoin:miter;stroke-miterlimit:4;stroke-dasharray:none;stroke-opacity:1"
         id="path22"
         inkscape:connector-curvature="0" />
    </g>
    <g
       id="g24"
       transform="matrix(0.35277777,0,0,-0.35277777,7.7372225,268.46391)"
       style="fill:#fafafa;fill-opacity:0.96164382;stroke:#ffffff;stroke-opacity:1">
      <path
         d="m 0,0 c 0,0 0.588,-1.127 1.615,-3.101 1,-1.986 2.481,-4.799 4.162,-8.22 1.682,-3.421 3.684,-7.392 5.754,-11.683 2.084,-4.285 4.258,-8.877 6.436,-13.469 2.15,-4.604 4.304,-9.206 6.277,-13.542 1.99,-4.329 3.772,-8.405 5.336,-11.881 1.565,-3.475 2.786,-6.41 3.68,-8.447 0.865,-2.05 1.359,-3.221 1.359,-3.221 0,0 -0.588,1.127 -1.615,3.101 -1,1.986 -2.483,4.798 -4.164,8.219 -1.681,3.421 -3.686,7.391 -5.754,11.683 -2.084,4.285 -4.256,8.878 -6.434,13.47 -2.15,4.604 -4.303,9.206 -6.276,13.543 -1.987,4.33 -3.771,8.404 -5.335,11.88 C 3.478,-8.191 2.254,-5.257 1.36,-3.221 0.494,-1.171 0,0 0,0"
         style="fill:#fafafa;fill-opacity:0.96164382;fill-rule:nonzero;stroke:#ffffff;stroke-opacity:1"
         id="path26"
         inkscape:connector-curvature="0" />
    </g>
    <g
       id="g28"
       transform="matrix(0.35277777,0,0,-0.35277777,20.431717,268.46391)"
       style="stroke-width:0.075;stroke-miterlimit:4;stroke-dasharray:none;stroke:#a74f4f;stroke-opacity:0;fill:#ffffff;fill-opacity:0">
      <path
         d="m 0,0 c 0,0 -0.649,-0.762 -1.785,-2.096 -1.159,-1.313 -2.773,-3.229 -4.784,-5.456 -2.013,-2.225 -4.327,-4.854 -6.869,-7.612 -2.531,-2.769 -5.269,-5.686 -8.003,-8.605 -2.758,-2.898 -5.51,-5.8 -8.13,-8.485 -2.607,-2.697 -5.099,-5.157 -7.205,-7.295 -2.107,-2.137 -3.929,-3.856 -5.173,-5.088 -1.266,-1.211 -1.99,-1.903 -1.99,-1.903 0,0 0.649,0.763 1.785,2.097 1.158,1.313 2.77,3.23 4.783,5.456 2.014,2.225 4.326,4.855 6.869,7.612 2.529,2.77 5.269,5.685 8.004,8.604 2.758,2.898 5.512,5.799 8.131,8.484 2.607,2.695 5.099,5.157 7.205,7.295 2.107,2.136 3.928,3.857 5.172,5.089 C -0.724,-0.692 0,0 0,0"
         style="fill:#ffffff;fill-opacity:0;fill-rule:nonzero;stroke:#a74f4f;stroke-width:0.075;stroke-miterlimit:4;stroke-dasharray:none;stroke-opacity:0"
         id="path30"
         inkscape:connector-curvature="0" />
    </g>
    <g
       id="g32"
       transform="matrix(0.35277777,0,0,-0.35277777,26.779672,274.89175)"
       style="fill:#ffffff;fill-opacity:0.57534248;stroke:#fffefe;stroke-opacity:0.9342466">
      <path
         d="m 0,0 c -2.809,-3.206 -5.684,-6.348 -8.523,-9.523 l -8.633,-9.419 c -2.864,-3.154 -5.799,-6.239 -8.703,-9.353 l -8.732,-9.326 -0.511,-0.545 -0.527,0.529 -9.111,9.154 c -3.028,3.063 -6.096,6.082 -9.086,9.182 l -9.012,9.254 c -2.967,3.123 -5.969,6.21 -8.904,9.364 3.169,-2.919 6.271,-5.906 9.408,-8.856 l 9.301,-8.966 c 3.114,-2.974 6.149,-6.027 9.226,-9.038 l 9.202,-9.066 -1.039,-0.016 8.828,9.236 c 2.948,3.072 5.865,6.174 8.855,9.208 l 8.926,9.142 C -6.022,-6.027 -3.045,-2.982 0,0"
         style="fill:#ffffff;fill-opacity:0.57534248;fill-rule:nonzero;stroke:#fffefe;stroke-opacity:0.9342466"
         id="path34"
         inkscape:connector-curvature="0" />
    </g>
  </g>
</svg>
