<?xml version="1.0" standalone="no"?>
<!DOCTYPE svg PUBLIC "-//W3C//DTD SVG 20010904//EN"
 "http://www.w3.org/TR/2001/REC-SVG-20010904/DTD/svg10.dtd">
<svg version="1.0" xmlns="http://www.w3.org/2000/svg"
 width="117.000000pt" height="117.000000pt" viewBox="0 0 117.000000 117.000000"
 preserveAspectRatio="xMidYMid meet">
<metadata>
Created by potrace 1.11, written by Peter Selinger 2001-2013
</metadata>
<g transform="translate(0.000000,117.000000) scale(0.100000,-0.100000)"
fill="#000000" stroke="none">
<path d="M312 1161 c-5 -3 -62 -67 -127 -141 -65 -74 -126 -144 -137 -156 -18
-20 -17 -23 33 -160 27 -76 54 -148 59 -159 22 -50 190 -513 190 -524 0 -24
21 -7 141 115 l124 125 49 -53 c27 -29 81 -88 120 -131 l71 -77 149 417 c82
230 150 423 152 428 4 12 -14 33 -172 200 -115 123 -117 124 -143 111 -99 -52
-301 -58 -428 -15 -40 14 -76 23 -81 20z m38 -92 c0 -5 4 -8 9 -5 5 4 37 -1
71 -10 75 -19 169 -24 252 -12 90 12 104 15 128 28 19 10 27 4 84 -57 35 -37
84 -90 109 -118 26 -27 46 -57 44 -66 -3 -24 -381 -412 -386 -397 -4 12 -81
177 -132 282 -20 43 -20 44 31 97 73 75 196 213 203 228 5 9 -53 -46 -127
-121 l-136 -138 -32 63 c-17 34 -48 96 -69 137 -67 133 -44 67 37 -107 53
-114 54 -108 -29 -195 l-72 -78 -87 85 c-49 47 -91 85 -95 85 -4 0 32 -40 81
-89 98 -99 96 -89 37 -153 -39 -43 -16 -33 27 12 l38 40 117 -119 117 -119
-97 -101 c-53 -56 -100 -98 -104 -94 -4 5 -34 83 -68 175 -34 92 -86 234 -116
314 -30 81 -55 149 -55 151 0 2 6 1 13 -2 6 -4 4 0 -5 8 -23 18 -23 38 0 63
30 34 148 168 172 197 25 28 40 35 40 16z m674 -321 c-9 -24 -31 -88 -50 -143
-19 -55 -39 -109 -44 -120 -5 -11 -32 -87 -61 -170 -63 -182 -62 -180 -77
-163 -12 15 -112 236 -112 247 1 6 39 50 144 161 33 36 94 103 135 148 41 45
75 82 77 82 2 0 -4 -19 -12 -42z m-426 -224 c28 -61 52 -114 52 -117 0 -11
-43 -47 -55 -47 -7 0 -66 52 -131 115 l-118 115 74 75 75 75 25 -52 c14 -29
49 -103 78 -164z m110 -231 l42 -88 -65 69 c-62 65 -65 70 -49 87 10 11 20 19
23 19 4 0 26 -39 49 -87z"/>
</g>
</svg>
