<?xml version="1.0" encoding="UTF-8" standalone="no"?>
<!-- Created with Inkscape (http://www.inkscape.org/) -->

<svg
   xmlns:dc="http://purl.org/dc/elements/1.1/"
   xmlns:cc="http://creativecommons.org/ns#"
   xmlns:rdf="http://www.w3.org/1999/02/22-rdf-syntax-ns#"
   xmlns:svg="http://www.w3.org/2000/svg"
   xmlns="http://www.w3.org/2000/svg"
   xmlns:sodipodi="http://sodipodi.sourceforge.net/DTD/sodipodi-0.dtd"
   xmlns:inkscape="http://www.inkscape.org/namespaces/inkscape"
   width="153mm"
   height="33mm"
   viewBox="0 0 153 33"
   version="1.1"
   id="svg5181"
   inkscape:version="0.92.3 (unknown)"
   sodipodi:docname="dovtic-color.svg"
   inkscape:export-filename="/home/alvaro/NetBeansProjects/DOVTIC/Dovtic/web/Public/assets/nuevo.png"
   inkscape:export-xdpi="96"
   inkscape:export-ydpi="96">
  <defs
     id="defs5175">
    <clipPath
       clipPathUnits="userSpaceOnUse"
       id="clipPath4534">
      <path
         d="M 0,1104 H 566 V 0 H 0 Z"
         id="path4532"
         inkscape:connector-curvature="0" />
    </clipPath>
  </defs>
  <sodipodi:namedview
     id="base"
     pagecolor="#ffffff"
     bordercolor="#666666"
     borderopacity="1.0"
     inkscape:pageopacity="0.0"
     inkscape:pageshadow="2"
     inkscape:zoom="2.1822021"
     inkscape:cx="218.28287"
     inkscape:cy="-8.5054179"
     inkscape:document-units="mm"
     inkscape:current-layer="g4528"
     showgrid="false"
     inkscape:pagecheckerboard="false"
     showborder="true"
     inkscape:showpageshadow="false"
     inkscape:window-width="1680"
     inkscape:window-height="1026"
     inkscape:window-x="1920"
     inkscape:window-y="54"
     inkscape:window-maximized="1" />
  <metadata
     id="metadata5178">
    <rdf:RDF>
      <cc:Work
         rdf:about="">
        <dc:format>image/svg+xml</dc:format>
        <dc:type
           rdf:resource="http://purl.org/dc/dcmitype/StillImage" />
        <dc:title></dc:title>
      </cc:Work>
    </rdf:RDF>
  </metadata>
  <g
     inkscape:label="Layer 1"
     inkscape:groupmode="layer"
     id="layer1"
     transform="translate(0,-264)">
    <g
       transform="matrix(0.35277777,0,0,-0.35277777,0.85665323,332.66432)"
       id="g4528">
      <g
         id="g4536"
         transform="translate(59.389104,108.82393)">
        <path
           d="M 0,0 19.359,54.205 1.365,73.564 c 0,0 -15.486,-8.428 -35.984,0 L -52.383,53.521 -32.568,0 l 16.81,17.081 z"
           style="fill:none;stroke:#29b6f6;stroke-width:5.08900023;stroke-linecap:butt;stroke-linejoin:miter;stroke-miterlimit:10;stroke-dasharray:none;stroke-opacity:1"
           id="path4538"
           inkscape:connector-curvature="0" />
      </g>
      <g
         id="g4540"
         transform="translate(24.769914,182.3879)">
        <path
           d="m 0,0 c 0,0 0.588,-1.127 1.615,-3.101 1,-1.986 2.481,-4.799 4.162,-8.22 1.682,-3.421 3.684,-7.392 5.754,-11.683 2.084,-4.285 4.258,-8.877 6.436,-13.469 2.15,-4.604 4.304,-9.206 6.277,-13.542 1.99,-4.329 3.772,-8.405 5.336,-11.881 1.565,-3.475 2.786,-6.41 3.68,-8.447 0.865,-2.05 1.359,-3.221 1.359,-3.221 0,0 -0.588,1.127 -1.615,3.101 -1,1.986 -2.483,4.798 -4.164,8.219 -1.681,3.421 -3.686,7.391 -5.754,11.683 -2.084,4.285 -4.256,8.878 -6.434,13.47 -2.15,4.604 -4.303,9.206 -6.276,13.543 -1.987,4.33 -3.771,8.404 -5.335,11.88 C 3.478,-8.191 2.254,-5.257 1.36,-3.221 0.494,-1.171 0,0 0,0"
           style="fill:#29b6f6;fill-opacity:1;fill-rule:nonzero;stroke:none"
           id="path4542"
           inkscape:connector-curvature="0" />
      </g>
      <g
         id="g4544"
         transform="translate(60.754314,182.3879)">
        <path
           d="m 0,0 c 0,0 -0.649,-0.762 -1.785,-2.096 -1.159,-1.313 -2.773,-3.229 -4.784,-5.456 -2.013,-2.225 -4.327,-4.854 -6.869,-7.612 -2.531,-2.769 -5.269,-5.686 -8.003,-8.605 -2.758,-2.898 -5.51,-5.8 -8.13,-8.485 -2.607,-2.697 -5.099,-5.157 -7.205,-7.295 -2.107,-2.137 -3.929,-3.856 -5.173,-5.088 -1.266,-1.211 -1.99,-1.903 -1.99,-1.903 0,0 0.649,0.763 1.785,2.097 1.158,1.313 2.77,3.23 4.783,5.456 2.014,2.225 4.326,4.855 6.869,7.612 2.529,2.77 5.269,5.685 8.004,8.604 2.758,2.898 5.512,5.799 8.131,8.484 2.607,2.695 5.099,5.157 7.205,7.295 2.107,2.136 3.928,3.857 5.172,5.089 C -0.724,-0.692 0,0 0,0"
           style="fill:#29b6f6;fill-opacity:1;fill-rule:nonzero;stroke:none"
           id="path4546"
           inkscape:connector-curvature="0" />
      </g>
      <g
         id="g4548"
         transform="translate(78.748514,164.16725)">
        <path
           d="m 0,0 c -2.809,-3.206 -5.684,-6.348 -8.523,-9.523 l -8.633,-9.419 c -2.864,-3.154 -5.799,-6.239 -8.703,-9.353 l -8.732,-9.326 -0.511,-0.545 -0.527,0.529 -9.111,9.154 c -3.028,3.063 -6.096,6.082 -9.086,9.182 l -9.012,9.254 c -2.967,3.123 -5.969,6.21 -8.904,9.364 3.169,-2.919 6.271,-5.906 9.408,-8.856 l 9.301,-8.966 c 3.114,-2.974 6.149,-6.027 9.226,-9.038 l 9.202,-9.066 -1.039,-0.016 8.828,9.236 c 2.948,3.072 5.865,6.174 8.855,9.208 l 8.926,9.142 C -6.022,-6.027 -3.045,-2.982 0,0"
           style="fill:#29b6f6;fill-opacity:1;fill-rule:nonzero;stroke:none"
           id="path4550"
           inkscape:connector-curvature="0" />
      </g>
      <g
         id="g4552"
         transform="translate(121.24649,126.02413)">
        <path
           d="m 0,0 c 5.82,0 10.502,1.533 14.049,4.6 3.547,3.065 5.32,7.432 5.32,13.099 v 0.199 c 0,5.6 -1.773,9.95 -5.32,13.049 -3.547,3.1 -8.229,4.65 -14.049,4.65 H -7.93 V 0 Z M -27.328,52.795 H -0.33 c 6.266,0 11.85,-0.85 16.748,-2.549 4.9,-1.7 9.033,-4.084 12.398,-7.15 3.368,-3.067 5.934,-6.717 7.702,-10.949 1.763,-4.234 2.648,-8.883 2.648,-13.949 v -0.199 c 0,-5.067 -0.9,-9.749 -2.699,-14.049 -1.801,-4.3 -4.401,-8.016 -7.799,-11.149 -3.4,-3.134 -7.584,-5.584 -12.549,-7.349 -4.967,-1.767 -10.584,-2.65 -16.849,-2.65 h -26.598 z"
           style="fill:#036177;fill-opacity:1;fill-rule:nonzero;stroke:none"
           id="path4554"
           inkscape:connector-curvature="0" />
      </g>
      <g
         id="g4556"
         transform="translate(197.1098,123.72433)">
        <path
           d="M 0,0 C 1.732,0 3.299,0.314 4.699,0.942 6.1,1.57 7.281,2.43 8.25,3.52 c 0.965,1.091 1.715,2.364 2.248,3.818 0.533,1.455 0.801,2.975 0.801,4.563 v 0.198 c 0,1.653 -0.285,3.206 -0.85,4.661 -0.566,1.454 -1.367,2.727 -2.4,3.818 -1.033,1.09 -2.25,1.965 -3.649,2.628 -1.4,0.661 -2.935,0.992 -4.599,0.992 -1.735,0 -3.301,-0.314 -4.701,-0.942 -1.399,-0.628 -2.584,-1.489 -3.549,-2.58 -0.967,-1.09 -1.717,-2.364 -2.25,-3.818 -0.533,-1.455 -0.799,-2.975 -0.799,-4.561 v -0.198 c 0,-1.653 0.281,-3.207 0.85,-4.662 C -10.084,5.982 -9.283,4.71 -8.25,3.62 -7.217,2.53 -6,1.653 -4.6,0.992 -3.199,0.33 -1.668,0 0,0 m -0.199,-16.198 c -4.334,0 -8.317,0.734 -11.949,2.199 -3.635,1.466 -6.786,3.483 -9.45,6.05 -2.668,2.565 -4.734,5.55 -6.199,8.949 -1.467,3.4 -2.201,7.032 -2.201,10.899 v 0.2 c 0,3.865 0.75,7.515 2.25,10.949 1.5,3.432 3.584,6.432 6.25,8.999 2.666,2.566 5.832,4.6 9.5,6.099 3.664,1.5 7.664,2.25 11.998,2.25 4.332,0 8.314,-0.75 11.949,-2.25 3.633,-1.499 6.781,-3.516 9.449,-6.049 2.664,-2.534 4.733,-5.499 6.2,-8.899 1.464,-3.4 2.199,-7.033 2.199,-10.899 v -0.2 c 0,-3.867 -0.75,-7.516 -2.25,-10.949 -1.5,-3.434 -3.584,-6.434 -6.248,-8.999 -2.668,-2.567 -5.834,-4.6 -9.5,-6.1 -3.666,-1.499 -7.666,-2.249 -11.998,-2.249"
           style="fill:#036177;fill-opacity:1;fill-rule:nonzero;stroke:none"
           id="path4558"
           inkscape:connector-curvature="0" />
      </g>
      <g
         id="g4560"
         transform="translate(230.80509,162.92113)">
        <path
           d="M 0,0 H 19.998 L 30.398,-31.597 40.797,0 H 60.494 L 38.896,-54.495 H 21.598 Z"
           style="fill:#036177;fill-opacity:1;fill-rule:nonzero;stroke:none"
           id="path4562"
           inkscape:connector-curvature="0" />
      </g>
      <g
         id="g4564"
         transform="translate(318.99259,107.72585)">
        <path
           d="m 0,0 c -5.764,0 -10.254,1.366 -13.469,4.1 -3.217,2.733 -4.824,7.332 -4.824,13.798 v 21.998 h -6.4 v 15.299 h 6.4 V 68.894 H 0.805 V 55.195 H 13.404 V 39.896 H 0.805 V 21.598 c 0,-1.934 0.433,-3.317 1.299,-4.149 0.867,-0.835 2.166,-1.25 3.9,-1.25 1.266,0 2.5,0.165 3.699,0.5 1.201,0.332 2.365,0.765 3.5,1.3 V 3.1 C 11.469,2.166 9.504,1.416 7.305,0.85 5.104,0.285 2.668,0 0,0"
           style="fill:#036177;fill-opacity:1;fill-rule:nonzero;stroke:none"
           id="path4566"
           inkscape:connector-curvature="0" />
      </g>
      <g
         id="g4568"
         transform="translate(396.58829,107.52613)">
        <path
           d="m 0,0 c -4.066,0 -7.834,0.75 -11.299,2.25 -3.467,1.5 -6.449,3.515 -8.949,6.049 -2.5,2.533 -4.467,5.515 -5.898,8.95 -1.436,3.432 -2.151,7.049 -2.151,10.848 v 0.2 c 0,3.8 0.715,7.415 2.151,10.849 1.431,3.433 3.414,6.433 5.949,9 2.531,2.565 5.582,4.599 9.148,6.099 3.567,1.5 7.483,2.25 11.75,2.25 5.598,0 10.264,-1.1 13.998,-3.3 3.733,-2.2 6.766,-5.134 9.1,-8.799 L 10.898,34.797 c -1.334,1.8 -2.765,3.2 -4.298,4.199 -1.534,1 -3.467,1.5 -5.799,1.5 -1.535,0 -2.951,-0.317 -4.25,-0.95 -1.301,-0.634 -2.418,-1.5 -3.35,-2.6 -0.933,-1.099 -1.668,-2.366 -2.199,-3.799 -0.535,-1.435 -0.801,-2.984 -0.801,-4.65 v -0.2 c 0,-1.734 0.266,-3.349 0.801,-4.849 0.531,-1.5 1.266,-2.8 2.199,-3.9 0.932,-1.1 2.065,-1.967 3.401,-2.6 1.332,-0.634 2.798,-0.949 4.398,-0.949 2.266,0 4.184,0.5 5.75,1.5 1.564,0.999 3.115,2.365 4.648,4.099 l 12.7,-9.199 C 21.564,8.665 18.398,5.665 14.6,3.399 10.799,1.134 5.932,0 0,0"
           style="fill:#036177;fill-opacity:1;fill-rule:nonzero;stroke:none"
           id="path4570"
           inkscape:connector-curvature="0" />
      </g>
      <g
         id="g4572"
         transform="translate(340.4946,174.70483)">
        <path
           d="M 0,0 V -6.884 H 19.898 V 0.01 h -4.269 v -2.5 h -4 v 2.5 H 8.254 v -2.5 h -4 v 2.5 h -3.76 z"
           style="fill:#036177;fill-opacity:1;fill-rule:nonzero;stroke:none"
           id="path4574"
           inkscape:connector-curvature="0" />
      </g>
      <g
         id="g4576"
         transform="translate(360.393,175.71515)">
        <path
           d="M 0,0 V 6.104 H -19.898 V 0 h 0.003 0.491 3.759 v 2.5 h 4 V 0 h 3.375 v 2.5 h 4 V 0 Z"
           style="fill:#036177;fill-opacity:1;fill-rule:nonzero;stroke:none"
           id="path4578"
           inkscape:connector-curvature="0" />
      </g>
      <path
         d="m 340.8948,108.82562 h 19.098 v 54.095 h -19.098 z"
         style="fill:#036177;fill-opacity:1;fill-rule:nonzero;stroke:none;stroke-width:0.99999994"
         id="path4580"
         inkscape:connector-curvature="0" />
    </g>
  </g>
</svg>
